<svg width="180" height="41" viewBox="0 0 180 41" xmlns="http://www.w3.org/2000/svg">
    <g transform="translate(0.000000,1004.000000) scale(0.100000,-0.100000)" 
    fill="#000000" stroke="none">
    <path d="M5155 9267 c-112 -114 -166 -164 -244 -227 -24 -19 -51 -42 -60 -50
-9 -8 -32 -26 -51 -40 -19 -13 -41 -30 -48 -37 -8 -7 -35 -27 -60 -45 -26 -18
-52 -37 -59 -43 -7 -5 -18 -15 -25 -20 -7 -6 -107 -73 -223 -149 -115 -76
-222 -147 -237 -157 -15 -11 -32 -19 -38 -19 -5 0 -10 -4 -10 -9 0 -5 -8 -11
-17 -15 -10 -3 -56 -31 -103 -61 -47 -30 -93 -58 -102 -61 -10 -4 -18 -10 -18
-15 0 -5 -6 -9 -13 -9 -6 0 -34 -16 -61 -35 -27 -19 -55 -35 -62 -35 -7 0 -14
-4 -16 -8 -1 -4 -55 -39 -118 -77 -63 -39 -116 -73 -118 -77 -2 -5 -8 -8 -13
-8 -5 0 -40 -19 -77 -42 -36 -24 -74 -47 -84 -53 -72 -41 -214 -131 -216 -137
-2 -5 -8 -8 -13 -8 -6 0 -40 -20 -77 -44 -142 -92 -186 -119 -219 -137 -13 -7
-23 -16 -23 -21 0 -4 -5 -8 -10 -8 -12 0 -73 -41 -78 -52 -2 -5 -8 -8 -13 -8
-11 0 -72 -42 -77 -52 -2 -5 -8 -8 -13 -8 -5 0 -41 -23 -81 -52 -40 -29 -100
-71 -133 -95 -33 -23 -64 -46 -70 -50 -5 -5 -35 -26 -65 -47 -30 -22 -56 -43
-58 -48 -2 -4 -8 -8 -14 -8 -8 0 -92 -63 -108 -81 -3 -3 -36 -29 -75 -58 -38
-30 -72 -57 -75 -60 -3 -4 -18 -17 -34 -29 -28 -21 -55 -46 -205 -180 -97 -88
-260 -252 -337 -338 -126 -141 -211 -243 -228 -273 -5 -9 -14 -21 -20 -27 -6
-6 -17 -20 -24 -30 -7 -11 -35 -50 -62 -89 -28 -38 -50 -75 -50 -81 0 -7 -4
-14 -8 -16 -11 -4 -82 -123 -82 -136 0 -6 -3 -12 -7 -14 -10 -4 -113 -211
-113 -226 0 -7 -3 -12 -8 -12 -4 0 -16 -24 -26 -52 -10 -29 -27 -72 -37 -95
-10 -23 -19 -49 -19 -57 0 -8 -4 -17 -9 -20 -5 -4 -12 -24 -16 -46 -4 -22 -10
-42 -15 -45 -4 -3 -11 -26 -15 -51 -4 -26 -11 -54 -15 -63 -14 -25 -56 -260
-70 -391 -11 -107 -11 -446 0 -565 11 -109 33 -246 42 -260 3 -5 9 -36 13 -68
4 -31 11 -60 16 -62 4 -3 11 -26 15 -50 3 -25 10 -47 14 -50 5 -3 11 -23 15
-45 4 -22 11 -42 16 -46 5 -3 9 -12 9 -20 0 -8 9 -34 19 -57 10 -23 27 -66 37
-94 10 -29 22 -53 26 -53 5 0 8 -5 8 -12 0 -15 73 -162 82 -166 5 -2 8 -8 8
-14 0 -13 71 -132 82 -136 4 -2 8 -9 8 -16 0 -7 9 -24 20 -37 29 -35 31 -38
74 -101 22 -32 42 -58 46 -58 4 0 11 -9 16 -20 20 -44 223 -256 350 -367 81
-70 191 -153 204 -153 5 0 10 -5 10 -10 0 -6 10 -15 23 -20 23 -10 58 -31 67
-40 35 -36 332 -182 460 -228 265 -93 424 -126 686 -144 230 -16 511 6 709 55
154 38 350 101 440 142 28 12 75 33 105 46 48 20 174 88 220 119 8 6 22 13 30
17 42 19 294 196 325 229 6 5 32 28 59 49 75 60 218 196 286 273 25 29 51 52
58 52 6 0 12 3 12 8 0 4 16 25 36 47 65 73 79 90 114 135 19 25 40 50 46 55
16 15 74 92 74 99 0 3 8 14 18 24 17 18 137 186 157 220 6 9 12 19 16 22 16
15 304 461 338 525 9 16 18 32 21 35 3 3 10 14 17 25 6 11 72 118 145 238 73
121 140 231 148 245 8 15 18 29 21 32 3 3 12 16 19 30 17 32 257 396 273 412
7 7 24 31 39 53 15 22 38 52 50 67 13 14 30 36 38 49 8 12 23 31 33 41 9 10
17 20 17 22 0 26 356 374 419 410 9 6 27 20 41 33 14 13 28 23 32 23 4 0 24
12 45 26 52 35 205 108 278 133 191 63 364 83 575 65 232 -20 279 -29 438 -82
193 -66 316 -139 440 -261 90 -88 110 -112 170 -201 43 -64 132 -240 132 -261
0 -6 6 -23 14 -37 21 -39 63 -188 95 -337 l19 -90 0 90 c0 135 -30 467 -45
505 -4 8 -12 47 -19 85 -23 129 -35 190 -41 205 -4 8 -12 38 -19 65 -26 105
-36 140 -43 155 -5 9 -12 31 -16 50 -4 19 -11 40 -15 45 -4 6 -11 26 -15 45
-4 19 -11 40 -14 45 -4 6 -16 33 -26 60 -16 45 -39 103 -65 160 -37 84 -50
115 -50 124 0 6 -4 11 -10 11 -5 0 -10 5 -10 12 0 15 -73 162 -82 166 -5 2 -8
8 -8 14 0 6 -22 47 -50 93 -28 46 -50 88 -50 94 0 6 -4 11 -10 11 -5 0 -10 5
-10 10 0 6 -8 23 -19 38 -10 15 -54 81 -97 147 -85 130 -81 124 -124 175 -16
19 -30 38 -30 41 0 3 -9 17 -20 30 -11 13 -23 29 -27 34 -22 29 -90 112 -103
126 -8 9 -37 42 -65 74 -60 70 -185 203 -276 294 -139 139 -224 217 -384 351
-27 23 -61 51 -75 64 -14 12 -45 37 -70 56 -63 49 -62 48 -95 75 -16 14 -48
38 -70 53 -22 15 -49 35 -59 44 -11 10 -38 30 -60 45 -23 15 -43 30 -46 33
-11 11 -70 50 -75 50 -5 0 -13 6 -48 35 -7 6 -30 22 -52 35 -22 13 -46 30 -53
37 -7 7 -20 13 -28 13 -8 0 -14 3 -14 8 0 4 -20 18 -45 32 -25 14 -45 28 -45
32 0 5 -6 8 -13 8 -6 0 -34 16 -61 35 -27 19 -55 35 -63 35 -7 0 -13 5 -13 10
0 6 -6 10 -13 10 -8 0 -23 8 -35 18 -11 10 -38 27 -59 38 -21 10 -40 21 -43
24 -3 3 -21 13 -40 24 -19 10 -64 34 -100 53 -36 20 -92 50 -125 67 -33 17
-62 34 -65 38 -3 3 -18 10 -33 13 -15 4 -27 11 -27 15 0 5 -13 11 -30 15 -16
4 -30 10 -30 15 0 5 -13 11 -30 15 -16 4 -30 11 -30 16 0 5 -5 9 -11 9 -7 0
-53 20 -103 44 -125 60 -216 102 -246 111 -14 4 -27 11 -30 14 -3 4 -50 24
-105 46 -55 22 -102 43 -105 47 -3 3 -18 10 -34 14 -17 4 -41 13 -55 20 -14 8
-33 14 -43 14 -9 0 -18 4 -20 10 -1 5 -53 -41 -113 -103z"/>
</g>
</svg>
